<svg width="18" height="15" viewBox="0 0 18 15" fill="none" xmlns="http://www.w3.org/2000/svg">
<path fill-rule="evenodd" clip-rule="evenodd" d="M8.15872 7.65626L8.15872 0.497925H9.82539L9.82539 7.65626L11.7421 5.74793L12.9171 6.92293L9.58372 10.2563C9.25872 10.5813 8.73372 10.5813 8.40872 10.2563L5.07539 6.92293L6.25039 5.74793L8.15872 7.65626ZM14.8337 13C15.292 13 15.667 12.625 15.667 12.1666V8.83329H17.3337V12.1666C17.3337 13.55 16.217 14.6666 14.8337 14.6666H3.16699C1.78366 14.6666 0.666992 13.55 0.666992 12.1666L0.700325 8.86663H2.36699L2.33366 12.1666C2.33366 12.625 2.70866 13 3.16699 13H14.8337Z" fill="white"/>
</svg>
