<svg width="11" height="11" viewBox="0 0 11 11" fill="none" xmlns="http://www.w3.org/2000/svg">
<path d="M9.10673 0.194458H2.45069C2.00762 0.194458 1.58267 0.370409 1.26925 0.683638C0.955839 0.996866 0.77961 1.42174 0.779297 1.86487V8.52405C0.77961 8.96718 0.955839 9.39205 1.26925 9.70527C1.58267 10.0185 2.00762 10.1945 2.45069 10.1945H9.1079C9.55098 10.1945 9.97593 10.0185 10.2893 9.70527C10.6028 9.39205 10.779 8.96718 10.7793 8.52405V1.86487C10.7791 1.64535 10.7358 1.42801 10.6516 1.22527C10.5675 1.02252 10.4442 0.838335 10.2889 0.683223C10.1336 0.528111 9.94927 0.405113 9.74643 0.321251C9.54359 0.237389 9.32622 0.194303 9.10673 0.194458Z" fill="#006AFF"/>
</svg>
