<svg width="18" height="18" viewBox="0 0 18 18" fill="none" xmlns="http://www.w3.org/2000/svg">
<path d="M7.50023 14.9646C9.07023 14.9646 10.5202 14.4346 11.6802 13.5646L15.7902 17.6746L17.2002 16.2646L13.0902 12.1546C13.9702 10.9846 14.4902 9.54461 14.4902 7.97461C14.4902 4.11461 11.3502 0.974609 7.49023 0.974609C3.63023 0.974609 0.490234 4.11461 0.490234 7.97461C0.490234 11.8346 3.64023 14.9646 7.50023 14.9646ZM7.50023 2.96461C10.2602 2.96461 12.5002 5.20461 12.5002 7.96461C12.5002 10.7246 10.2602 12.9646 7.50023 12.9646C4.74023 12.9646 2.50023 10.7246 2.50023 7.96461C2.50023 5.20461 4.74023 2.96461 7.50023 2.96461Z" fill="white"/>
</svg>
