<svg width="19" height="19" viewBox="0 0 19 19" fill="none" xmlns="http://www.w3.org/2000/svg">
<path d="M9.75977 0.5C4.79977 0.5 0.759766 4.54 0.759766 9.5C0.759766 14.46 4.78977 18.5 9.74977 18.5C9.74977 18.5 9.74977 18.5 9.75977 18.5C9.76977 18.5 9.75977 18.5 9.76977 18.5C14.7298 18.5 18.7598 14.46 18.7598 9.5C18.7598 4.54 14.7198 0.5 9.75977 0.5ZM15.2098 5.11C14.6498 5.32 14.0298 5.5 13.3698 5.64C13.1698 4.69 12.8998 3.83 12.5698 3.09C13.5998 3.55 14.5098 4.24 15.2098 5.11ZM16.7598 9.5C16.7598 10.44 16.5698 11.33 16.2398 12.15C15.4698 11.83 14.6098 11.58 13.6698 11.39C13.7298 10.78 13.7598 10.15 13.7598 9.5C13.7598 8.85 13.7298 8.22 13.6698 7.62C14.5998 7.43 15.4698 7.17 16.2398 6.86C16.5698 7.67 16.7598 8.56 16.7598 9.5ZM9.75977 16.49C9.35977 16.3 8.59977 15.12 8.13977 13.08C8.66977 13.03 9.20977 13.01 9.75977 13.01C10.3098 13.01 10.8498 13.04 11.3798 13.08C10.9198 15.12 10.1598 16.3 9.75977 16.49ZM9.75977 11C9.09977 11 8.45977 11.04 7.82977 11.09C7.78977 10.59 7.75977 10.07 7.75977 9.5C7.75977 8.93 7.78977 8.41 7.82977 7.91C8.45977 7.97 9.09977 8 9.75977 8C10.4198 8 11.0598 7.96 11.6898 7.91C11.7298 8.41 11.7598 8.93 11.7598 9.5C11.7598 10.07 11.7298 10.59 11.6898 11.09C11.0598 11.03 10.4198 11 9.75977 11ZM2.75977 9.5C2.75977 8.56 2.94977 7.67 3.27977 6.85C4.04977 7.17 4.90977 7.42 5.84977 7.61C5.78977 8.22 5.75977 8.85 5.75977 9.5C5.75977 10.15 5.78977 10.78 5.84977 11.38C4.91977 11.57 4.04977 11.83 3.27977 12.14C2.94977 11.33 2.75977 10.44 2.75977 9.5ZM9.75977 2.51C10.1598 2.7 10.9198 3.88 11.3798 5.92C10.8498 5.97 10.3098 6 9.75977 6C9.20977 6 8.66977 5.97 8.13977 5.93C8.59977 3.88 9.35977 2.7 9.75977 2.51ZM6.94977 3.09C6.61977 3.82 6.34977 4.68 6.14977 5.64C5.48977 5.5 4.86977 5.32 4.30977 5.11C5.00977 4.24 5.91977 3.55 6.94977 3.09ZM4.30977 13.89C4.86977 13.68 5.47977 13.5 6.14977 13.36C6.34977 14.31 6.61977 15.17 6.94977 15.91C5.91977 15.45 5.00977 14.76 4.30977 13.89ZM12.5698 15.91C12.8998 15.18 13.1698 14.32 13.3698 13.36C14.0298 13.5 14.6498 13.68 15.2098 13.89C14.5098 14.76 13.5998 15.45 12.5698 15.91Z" fill="white"/>
</svg>
