<svg width="17" height="14" viewBox="0 0 17 14" fill="none" xmlns="http://www.w3.org/2000/svg">
<path d="M16.5105 2.4526C15.9183 2.71656 15.29 2.88971 14.6467 2.96627C15.3242 2.55815 15.8314 1.91646 16.074 1.16045C15.4373 1.54289 14.7403 1.81293 14.0131 1.9589C13.524 1.43549 12.877 1.08887 12.1723 0.972693C11.4676 0.856517 10.7444 0.977261 10.1148 1.31624C9.4852 1.65521 8.98421 2.19352 8.68937 2.84784C8.39454 3.50215 8.32232 4.23599 8.48387 4.93577C7.19349 4.87089 5.93108 4.53371 4.77864 3.94612C3.62621 3.35853 2.6095 2.53366 1.79455 1.52508C1.37955 2.24386 1.25251 3.09474 1.43929 3.90445C1.62607 4.71416 2.11262 5.4218 2.79986 5.88326C2.28457 5.86726 1.7806 5.72716 1.33025 5.47472C1.33025 5.48803 1.33025 5.50266 1.33025 5.51597C1.33037 6.26971 1.58966 7.00021 2.06415 7.58354C2.53863 8.16687 3.19909 8.56713 3.93349 8.7164C3.65516 8.79365 3.3677 8.83259 3.07897 8.83217C2.87391 8.83166 2.66932 8.81206 2.46784 8.77362C2.67604 9.4214 3.08012 9.9876 3.62365 10.3932C4.16719 10.7987 4.82305 11.0234 5.49966 11.0359C4.13758 12.1052 2.41124 12.5911 0.695312 12.3879C2.17919 13.346 3.9058 13.8541 5.66898 13.8517C11.6387 13.8517 14.902 8.87742 14.902 4.56316C14.902 4.4221 14.902 4.28104 14.8928 4.14131C15.5273 3.67934 16.0751 3.10754 16.5105 2.4526Z" fill="#121212"/>
</svg>
