<svg width="18" height="18" viewBox="0 0 18 18" fill="none" xmlns="http://www.w3.org/2000/svg">
<path d="M7.49999 14.4998C9.06999 14.4998 10.52 13.9698 11.68 13.0998L15.79 17.2098L17.2 15.7998L13.09 11.6898C13.97 10.5198 14.49 9.07977 14.49 7.50977C14.49 3.64977 11.35 0.509766 7.48999 0.509766C3.62999 0.509766 0.48999 3.64977 0.48999 7.50977C0.48999 11.3698 3.63999 14.4998 7.49999 14.4998ZM7.49999 2.49977C10.26 2.49977 12.5 4.73977 12.5 7.49977C12.5 10.2598 10.26 12.4998 7.49999 12.4998C4.73999 12.4998 2.49999 10.2598 2.49999 7.49977C2.49999 4.73977 4.73999 2.49977 7.49999 2.49977Z" fill="#121212"/>
</svg>
