<svg width="24" height="19" viewBox="0 0 24 19" fill="none" xmlns="http://www.w3.org/2000/svg">
<path d="M23.4324 2.34491C22.5963 2.71546 21.6974 2.9663 20.7549 3.07841C21.7164 2.50073 22.4556 1.58861 22.8053 0.499761C21.9046 1.03373 20.9069 1.42139 19.8447 1.63041C18.9953 0.723992 17.7829 0.157715 16.4413 0.157715C13.8665 0.157715 11.78 2.2442 11.78 4.81905C11.78 5.1839 11.8218 5.53924 11.9016 5.88129C8.02698 5.68746 4.59322 3.83091 2.2939 1.01093C1.89295 1.69882 1.66302 2.50073 1.66302 3.35395C1.66302 4.97107 2.48583 6.39816 3.7362 7.23427C2.9723 7.20957 2.254 7.00054 1.62501 6.65089C1.62501 6.6699 1.62501 6.6889 1.62501 6.7098C1.62501 8.96921 3.23263 10.8524 5.36472 11.2799C4.97327 11.3863 4.56091 11.4433 4.13715 11.4433C3.83691 11.4433 3.54427 11.4148 3.25924 11.3597C3.85212 13.2125 5.57375 14.5598 7.61463 14.5978C6.01841 15.8481 4.00984 16.593 1.82454 16.593C1.44829 16.593 1.07774 16.5702 0.712891 16.5284C2.77657 17.851 5.226 18.6225 7.85786 18.6225C16.4318 18.6225 21.1217 11.5194 21.1217 5.35872C21.1217 5.15729 21.1179 4.95586 21.1083 4.75634C22.0186 4.09885 22.8091 3.27794 23.4343 2.34301L23.4324 2.34491Z" fill="white"/>
</svg>
