<svg width="21" height="22" viewBox="0 0 21 22" fill="none" xmlns="http://www.w3.org/2000/svg">
<path d="M14.7488 22H6.11213C2.80758 22 0.103516 19.2959 0.103516 15.9913V6.7884C0.103516 3.48385 2.80758 0.779785 6.11213 0.779785H14.7488C18.0533 0.779785 20.7574 3.48385 20.7574 6.7884V15.9913C20.7574 19.2959 18.0533 22 14.7488 22ZM14.7488 20.4113C15.9232 20.4113 17.031 19.9496 17.869 19.1116C18.707 18.2736 19.1688 17.1657 19.1688 15.9913V6.7884C19.1688 5.61404 18.707 4.50619 17.869 3.66818C17.031 2.83016 15.9232 2.3684 14.7488 2.3684H6.11213C4.93777 2.3684 3.82992 2.83016 2.99191 3.66818C2.15389 4.50619 1.69213 5.61404 1.69213 6.7884V15.9913C1.69213 17.1657 2.15389 18.2736 2.99191 19.1116C3.82992 19.9496 4.93777 20.4113 6.11213 20.4113H14.7488ZM16.1493 11.3072C16.1493 14.4483 13.6029 16.9947 10.4618 16.9947C7.32069 16.9947 4.77435 14.4483 4.77435 11.3072C4.77435 8.16608 7.32069 5.61974 10.4618 5.61974C13.6029 5.61974 16.1493 8.16608 16.1493 11.3072ZM10.4352 7.58841C8.37914 7.58841 6.71071 9.25493 6.71071 11.3129C6.71071 13.3709 8.37723 15.0374 10.4352 15.0374C12.4932 15.0374 14.1597 13.3709 14.1597 11.3129C14.1597 9.25493 12.4932 7.58841 10.4352 7.58841ZM16.2405 4.18505C15.4975 4.18505 14.8932 4.78743 14.8932 5.53233C14.8932 6.27723 15.4956 6.87961 16.2405 6.87961C16.9854 6.87961 17.5878 6.27723 17.5878 5.53233C17.5878 4.78743 16.9854 4.18505 16.2405 4.18505Z" fill="white"/>
</svg>
