<svg width="1199" height="152" viewBox="0 0 1199 152" fill="none" xmlns="http://www.w3.org/2000/svg">
<path d="M137.495 2.25636V28.9824H83.717V149.562H53.7904V28.9824H0V2.25636H137.495ZM145.665 149.562V2.25636H174.751V41.8125L173.083 67.2776H174.751C182.081 50.6518 196.107 39.7066 217.863 39.7066C247.79 39.7066 264.738 58.4382 264.738 93.0027V149.614H235.651V95.1086C235.651 76.1689 226.24 66.2767 208.026 66.2767C188.984 66.2767 174.751 77.8458 174.751 98.8913V149.588L145.665 149.562ZM397.501 102.258H302.278C304.993 117.857 318.179 127.931 335.967 127.931C351.661 127.931 360.878 123.096 365.48 114.932H396.027C389.331 137.979 370.082 151.654 335.967 151.654C297.469 151.654 273.399 129.556 273.399 95.6675C273.399 62 299.551 39.6936 335.553 39.6936C376.92 39.6936 398.121 64.3138 398.121 90.6239C398.171 94.5115 397.964 98.3981 397.501 102.258V102.258ZM366.941 81.4596C364.226 70.0854 353.134 61.467 335.553 61.467C320.687 61.467 308.975 68.4085 303.946 81.4596H366.941ZM605.009 149.64H571.747L534.258 94.7056H496.769V149.64H466.894V2.25636H542.648C577.552 2.25636 598.74 18.6611 598.74 48.338C598.74 71.2683 586.394 86.2172 564.831 91.8978L605.009 149.64ZM496.821 29.0604V67.9795H544.949C559.816 67.9795 568.813 60.83 568.813 48.416C568.813 36.0019 559.764 29.0604 544.949 29.0604H496.821ZM722.751 102.258H627.58C630.308 117.857 643.494 127.931 661.282 127.931C676.975 127.931 686.18 123.096 690.782 114.932H721.342C714.646 138.083 695.384 151.771 661.282 151.771C622.771 151.654 598.649 129.556 598.649 95.6805C598.649 62.013 624.814 39.7066 660.803 39.7066C702.171 39.7066 723.384 64.3268 723.384 90.6369C723.431 94.5205 723.219 98.4028 722.751 102.258V102.258ZM692.191 81.4596C689.476 70.0854 678.385 61.467 660.803 61.467C645.95 61.467 634.225 68.4085 629.209 81.4596H692.191ZM729.861 119.755C729.861 98.7093 745.774 86.9192 772.521 85.2423L810.398 82.7205V78.8597C810.398 69.3964 802.228 63.0789 786.534 63.0789C773.607 63.0789 767.079 68.9675 764.351 76.7539H733.325C737.307 55.2925 756.142 39.7196 786.482 39.7196C821.011 39.7196 839.484 52.3547 839.484 76.7539V149.549H812.065V127.034H810.398C804.115 139.864 790.723 151.654 766.445 151.654C744.559 151.654 729.913 138.824 729.913 119.677L729.861 119.755ZM810.437 101.868V100.815L779.256 103.545C767.324 104.598 761.468 109.018 761.468 116.388C761.468 123.537 766.91 127.541 777.369 127.541C799.81 127.463 810.488 114.828 810.488 101.79L810.437 101.868ZM848.003 95.7585C848.003 61.675 872.074 39.7846 902.001 39.7846C922.684 39.7846 936.103 48.624 943.368 61.467H945.1L943.432 41.8904V0.228516H972.519V149.64H945.1V130.7H943.432C935.676 142.893 922.296 151.745 902.065 151.745C872.125 151.654 848.055 129.777 848.055 95.6805L848.003 95.7585ZM944.273 95.7585C944.273 76.1949 930.247 66.3027 910.998 66.3027C891.956 66.3027 877.93 76.1949 877.93 95.7585C877.93 115.543 891.956 125.227 910.998 125.227C930.298 125.149 944.324 115.465 944.324 95.6805L944.273 95.7585ZM1105.23 102.258H1010.01C1012.72 117.857 1025.91 127.931 1043.7 127.931C1059.39 127.931 1068.61 123.096 1073.21 114.932H1103.76C1097.06 138.083 1077.81 151.771 1043.7 151.771C1005.2 151.771 981.128 129.673 981.128 95.7845C981.128 62.117 1007.28 39.8106 1043.28 39.8106C1084.65 39.8106 1105.85 64.4308 1105.85 90.7409C1105.91 94.5883 1105.72 98.4357 1105.28 102.258H1105.23ZM1074.67 81.4596C1071.96 70.0854 1060.86 61.467 1043.28 61.467C1028.42 61.467 1016.7 68.4085 1011.68 81.4596H1074.67ZM1115.46 149.64V41.3965H1142.89V63.7808H1144.57C1148.96 48 1161.93 39.7846 1183.91 39.7846H1198.13V66.3027H1178.45C1160.04 66.3027 1144.55 76.1949 1144.55 97.0194V149.64H1115.46Z" fill="white"/>
</svg>
