<svg width="95" height="25" viewBox="0 0 95 25" fill="none" xmlns="http://www.w3.org/2000/svg">
<path d="M20.3641 0.979248H4.69305C3.64988 0.979248 2.64943 1.39364 1.9118 2.13128C1.17417 2.86891 0.759766 3.86936 0.759766 4.91253V20.5836C0.759766 21.6268 1.17417 22.6272 1.9118 23.3648C2.64943 24.1025 3.64988 24.5169 4.69305 24.5169H20.3641C21.4074 24.5169 22.408 24.1025 23.1458 23.3649C23.8837 22.6273 24.2983 21.6269 24.2987 20.5836V4.91253C24.2983 3.86924 23.8837 2.8688 23.1458 2.1312C22.408 1.3936 21.4074 0.979248 20.3641 0.979248ZM20.0199 18.996C20.0199 19.3252 19.8893 19.641 19.6566 19.8739C19.4239 20.1068 19.1083 20.2378 18.7791 20.2381H6.28319C5.95377 20.2381 5.63784 20.1073 5.4049 19.8743C5.17196 19.6414 5.0411 19.3255 5.0411 18.996V6.50138C5.0411 6.17195 5.17196 5.85602 5.4049 5.62309C5.63784 5.39015 5.95377 5.25929 6.28319 5.25929H18.7778C19.107 5.25963 19.4226 5.39065 19.6553 5.62355C19.888 5.85645 20.0186 6.17218 20.0186 6.50138L20.0199 18.996ZM10.0328 15.9426C9.93902 15.9424 9.84625 15.9237 9.75973 15.8877C9.67322 15.8516 9.59467 15.7988 9.52857 15.7324C9.46247 15.6659 9.41013 15.5871 9.37454 15.5004C9.33894 15.4137 9.3208 15.3208 9.32114 15.2271V10.2393C9.32063 10.1455 9.33865 10.0524 9.37416 9.96558C9.40968 9.87873 9.462 9.79973 9.52811 9.73314C9.59422 9.66654 9.67283 9.61366 9.75943 9.57751C9.84603 9.54136 9.93891 9.52267 10.0328 9.5225H15.0283C15.1222 9.52267 15.2151 9.54136 15.3018 9.57749C15.3885 9.61362 15.4672 9.66648 15.5334 9.73306C15.5996 9.79964 15.652 9.87862 15.6877 9.96548C15.7234 10.0523 15.7415 10.1454 15.7412 10.2393V15.2271C15.7414 15.3209 15.7231 15.4138 15.6873 15.5005C15.6516 15.5872 15.5991 15.666 15.5329 15.7325C15.4667 15.7989 15.3881 15.8517 15.3015 15.8877C15.2149 15.9238 15.1221 15.9424 15.0283 15.9426H10.0328ZM30.5402 15.6023H33.1098C33.2392 17.0579 34.2238 18.19 36.215 18.19C37.9927 18.19 39.0847 17.3115 39.0847 15.9904C39.0847 14.7483 38.2282 14.1907 36.686 13.8271L34.6947 13.3989C32.5314 12.9279 30.9038 11.5357 30.9038 9.26503C30.9038 6.76014 33.1318 5.0458 36.0222 5.0458C39.0847 5.0458 41.0553 6.65275 41.2261 9.02955H38.7419C38.443 7.91555 37.5218 7.2518 36.0248 7.2518C34.4398 7.2518 33.3478 8.10833 33.3478 9.20163C33.3478 10.2949 34.2898 10.9574 35.9174 11.3209L37.8841 11.7414C40.0474 12.2124 41.5249 13.5192 41.5249 15.8106C41.5249 18.723 39.3409 20.4581 36.2202 20.4581C32.6996 20.4633 30.7588 18.5574 30.5389 15.6023H30.5402ZM50.7242 24.5169V20.2472L50.8924 18.3776H50.7242C50.1368 19.7219 48.8973 20.4568 47.2166 20.4568C44.5072 20.4568 42.4914 18.2572 42.4914 14.87C42.4914 11.4827 44.5072 9.28314 47.2166 9.28314C48.8766 9.28314 50.0527 10.0594 50.7242 11.2782H50.8924V9.49274H53.1191V24.5169H50.7242ZM50.8083 14.8764C50.8083 12.7131 49.486 11.4529 47.8674 11.4529C46.2488 11.4529 44.9277 12.7131 44.9277 14.8764C44.9277 17.0397 46.25 18.2999 47.8674 18.2999C49.4847 18.2999 50.8031 17.0462 50.8031 14.8764H50.8083ZM54.8981 15.9891V9.49921H57.2827V15.7795C57.2827 17.4809 58.1017 18.2999 59.468 18.2999C61.15 18.2999 62.2394 17.1031 62.2394 15.2335V9.49921H64.6343V20.2536H62.4115V18.0269H62.2433C61.7193 19.4502 60.5613 20.4633 58.7784 20.4633C56.2152 20.4633 54.8929 18.8252 54.8929 15.9891H54.8981ZM66.1041 17.2493C66.1041 15.2335 67.5105 14.0574 70.0102 13.9099L72.9718 13.721V12.8813C72.9718 11.8721 72.2369 11.264 70.934 11.264C69.7372 11.264 69.023 11.8721 68.8341 12.7338H66.434C66.6863 10.5498 68.4925 9.28961 70.9288 9.28961C73.6808 9.28961 75.3616 10.4657 75.3616 12.7338V20.2536H73.1349V18.2585H72.9666C72.4633 19.5809 71.414 20.4581 69.3956 20.4581C67.4639 20.4633 66.0989 19.1616 66.0989 17.2493H66.1041ZM72.9718 15.927V15.3642L70.5562 15.5324C69.2546 15.6165 68.6659 16.1004 68.6659 17.0656C68.6659 17.8846 69.3387 18.4733 70.2832 18.4733C71.9794 18.4694 72.9666 17.3761 72.9666 15.927H72.9718ZM77.1497 20.2536V9.49921H79.3764V11.5577H79.5368C79.8512 10.15 80.9225 9.49921 82.5191 9.49921H83.6111V11.6625H82.2539C80.7013 11.6625 79.5446 12.6704 79.5446 14.5827V20.2536H77.1497ZM94.5777 15.3176H86.4019C86.5313 17.292 87.9144 18.4047 89.4476 18.4047C90.7493 18.4047 91.5683 17.8794 92.0353 16.9983H94.4095C93.7626 19.1823 91.8464 20.4633 89.4308 20.4633C86.2596 20.4633 84.0329 18.0903 84.0329 14.8764C84.0329 11.6625 86.323 9.28961 89.4528 9.28961C92.6033 9.28961 94.6618 11.4529 94.6618 14.1415C94.6582 14.5351 94.6284 14.928 94.5726 15.3176H94.5777ZM92.2876 13.6576C92.2035 12.1671 90.9653 11.1592 89.4528 11.1592C88.0296 11.1592 86.8263 12.0649 86.5326 13.6576H92.2876Z" fill="white"/>
</svg>
