<svg width="1208" height="153" viewBox="0 0 1208 153" fill="none" xmlns="http://www.w3.org/2000/svg">
<path d="M138.527 2.28124V29.1631H84.3454V150.445H54.1941V29.1631H0V2.28124H138.527ZM146.758 150.445V2.28124H176.063V42.0679L174.382 67.6814H176.063C183.447 50.9588 197.579 39.9498 219.499 39.9498C249.65 39.9498 266.725 58.7906 266.725 93.5565V150.497H237.42V95.6746C237.42 76.6246 227.938 66.6747 209.587 66.6747C190.402 66.6747 176.063 78.3113 176.063 99.4794V150.471L146.758 150.445ZM400.485 102.866H304.547C307.283 118.556 320.567 128.689 338.489 128.689C354.3 128.689 363.587 123.825 368.223 115.614H399C392.253 138.795 372.86 152.55 338.489 152.55C299.702 152.55 275.451 130.323 275.451 96.2368C275.451 62.3731 301.799 39.9367 338.072 39.9367C379.75 39.9367 401.11 64.7004 401.11 91.1638C401.16 95.0741 400.951 98.9834 400.485 102.866ZM369.695 81.9461C366.96 70.5056 355.785 61.837 338.072 61.837C323.094 61.837 311.294 68.819 306.228 81.9461H369.695ZM609.551 150.523H576.039L538.269 95.2693H500.498V150.523H470.399V2.28124H546.721C581.887 2.28124 603.234 18.7816 603.234 48.6314C603.234 71.6954 590.796 86.7315 569.071 92.4452L609.551 150.523ZM500.55 29.2415V68.3875H549.04C564.018 68.3875 573.083 61.1963 573.083 48.7099C573.083 36.2234 563.966 29.2415 549.04 29.2415H500.55ZM728.176 102.866H632.291C635.039 118.556 648.324 128.689 666.246 128.689C682.057 128.689 691.33 123.825 695.967 115.614H726.756C720.01 138.9 700.604 152.668 666.246 152.668C627.446 152.55 603.143 130.323 603.143 96.2499C603.143 62.3862 629.504 39.9498 665.764 39.9498C707.441 39.9498 728.814 64.7135 728.814 91.1769C728.861 95.0831 728.648 98.9881 728.176 102.866ZM697.387 81.9461C694.651 70.5056 683.477 61.837 665.764 61.837C650.799 61.837 638.986 68.819 633.932 81.9461H697.387ZM735.339 120.464C735.339 99.2963 751.372 87.4375 778.32 85.7509L816.481 83.2143V79.3311C816.481 69.8127 808.25 63.4583 792.438 63.4583C779.414 63.4583 772.837 69.3812 770.088 77.213H738.83C742.842 55.6265 761.818 39.9629 792.386 39.9629C827.174 39.9629 845.786 52.6716 845.786 77.213V150.432H818.161V127.786H816.481C810.151 140.691 796.658 152.55 772.198 152.55C750.148 152.55 735.392 139.645 735.392 120.386L735.339 120.464ZM816.52 102.474V101.414L785.105 104.16C773.084 105.219 767.184 109.665 767.184 117.078C767.184 124.269 772.667 128.296 783.204 128.296C805.814 128.218 816.572 115.509 816.572 102.395L816.52 102.474ZM854.369 96.3284C854.369 62.0462 878.62 40.0282 908.771 40.0282C929.61 40.0282 943.129 48.9191 950.449 61.837H952.194L950.514 42.1463V0.241577H979.819V150.523H952.194V131.473H950.514C942.699 143.738 929.219 152.642 908.836 152.642C878.672 152.55 854.421 130.545 854.421 96.2499L854.369 96.3284ZM951.361 96.3284C951.361 76.6508 937.229 66.7008 917.836 66.7008C898.651 66.7008 884.52 76.6508 884.52 96.3284C884.52 116.228 898.651 125.969 917.836 125.969C937.281 125.891 951.413 116.15 951.413 96.2499L951.361 96.3284ZM1113.53 102.866H1017.59C1020.32 118.556 1033.61 128.689 1051.53 128.689C1067.34 128.689 1076.63 123.825 1081.27 115.614H1112.04C1105.29 138.9 1085.9 152.668 1051.53 152.668C1012.74 152.668 988.493 130.441 988.493 96.3545C988.493 62.4907 1014.84 40.0544 1051.11 40.0544C1092.79 40.0544 1114.15 64.8181 1114.15 91.2815C1114.21 95.1514 1114.02 99.0212 1113.58 102.866H1113.53ZM1082.74 81.9461C1080 70.5056 1068.83 61.837 1051.11 61.837C1036.14 61.837 1024.34 68.819 1019.27 81.9461H1082.74ZM1123.83 150.523V41.6495H1151.47V64.1643H1153.16C1157.59 48.2915 1170.65 40.0282 1192.79 40.0282H1207.12V66.7008H1187.3C1168.75 66.7008 1153.15 76.6508 1153.15 97.5966V150.523H1123.83Z" fill="#121212"/>
</svg>
