<svg width="19" height="16" viewBox="0 0 19 16" fill="none" xmlns="http://www.w3.org/2000/svg">
<path fill-rule="evenodd" clip-rule="evenodd" d="M8.7262 7.84578L8.7262 0.267456H10.4907L10.4907 7.84578L12.5198 5.82548L13.7637 7.06942L10.2348 10.5983C9.89074 10.9424 9.33494 10.9424 8.99087 10.5983L5.46196 7.06942L6.7059 5.82548L8.7262 7.84578ZM15.7928 13.503C16.278 13.503 16.675 13.106 16.675 12.6208V9.09187H18.4394V12.6208C18.4394 14.0853 17.2573 15.2675 15.7928 15.2675H3.4416C1.97711 15.2675 0.794922 14.0853 0.794922 12.6208L0.830211 9.12716H2.59466L2.55937 12.6208C2.55937 13.106 2.95638 13.503 3.4416 13.503H15.7928Z" fill="#006AFF"/>
</svg>
