<svg width="14" height="14" viewBox="0 0 14 14" fill="none" xmlns="http://www.w3.org/2000/svg">
<path fill-rule="evenodd" clip-rule="evenodd" d="M10.5888 0.267212C11.1717 0.267212 11.7627 0.493891 12.208 0.939153C13.0985 1.82968 13.0985 3.2869 12.208 4.17742L10.5888 5.79656L3.30272 13.0827H0.0644531V9.8444L7.35056 2.55829L8.9697 0.939153C9.41496 0.493891 10.0059 0.267212 10.5888 0.267212ZM10.5969 1.88635C10.4917 1.88635 10.2893 1.91063 10.1193 2.08064L9.64974 2.56638L10.5969 3.51358L11.0746 3.03593C11.2446 2.85783 11.2689 2.66353 11.2689 2.55829C11.2689 2.45305 11.2527 2.25065 11.0746 2.08064C10.8965 1.91063 10.7022 1.88635 10.5969 1.88635ZM1.68359 11.4635H2.63078L9.43925 4.65507L8.49205 3.70788L1.68359 10.5163V11.4635ZM6.541 11.4636H13.0175V13.0827H6.541V11.4636Z" fill="white"/>
</svg>
