<svg width="18" height="19" viewBox="0 0 18 19" fill="none" xmlns="http://www.w3.org/2000/svg">
<path fill-rule="evenodd" clip-rule="evenodd" d="M0 9.5C0 4.53 4.03 0.5 9 0.5C13.97 0.5 18 4.53 18 9.5C18 14.47 13.97 18.5 9 18.5C4.03 18.5 0 14.47 0 9.5ZM2 9.5C2 13.36 5.14 16.5 9 16.5C12.86 16.5 16 13.36 16 9.5C16 5.64 12.86 2.5 9 2.5C5.14 2.5 2 5.64 2 9.5ZM5.71005 8.30005L8.00005 10.59L12.3101 6.30005L13.72 7.71005L8.72005 12.71C8.52005 12.9 8.27005 13 8.01005 13C7.75005 13 7.50005 12.91 7.30005 12.71L4.30005 9.71005L5.71005 8.30005Z" fill="#006AFF"/>
</svg>
