<svg width="14" height="14" viewBox="0 0 14 14" fill="none" xmlns="http://www.w3.org/2000/svg">
<path d="M8.54647 6.18068C8.55135 6.26427 8.55135 6.35277 8.5318 6.43635C8.5318 6.44127 8.52692 6.44618 8.52692 6.44618C8.49271 6.59368 8.4194 6.73135 8.30699 6.84935C7.97954 7.17876 7.44683 7.17876 7.11938 6.84935C6.78216 6.5101 6.3081 6.38227 5.86824 6.46585C5.77539 6.48552 5.68742 6.5101 5.59944 6.54451C5.43328 6.61335 5.27688 6.7166 5.14004 6.84935L3.83025 8.17193L2.24189 9.76984C1.6994 10.3156 1.6994 11.2104 2.24189 11.7562C2.76972 12.2872 3.68852 12.2872 4.21635 11.7562L5.4235 10.5418C5.93178 10.8908 6.50359 11.1268 7.10961 11.2301L5.40395 12.946C4.80282 13.5508 4.01597 13.8507 3.22912 13.8507C2.44227 13.8507 1.65542 13.5508 1.05429 12.946C-0.143095 11.7414 -0.143095 9.77476 1.05429 8.57018L3.95244 5.6546C4.55357 5.04985 5.34042 4.74993 6.12727 4.74993C6.91412 4.74993 7.70097 5.04985 8.3021 5.6546C8.36564 5.71852 8.41451 5.79227 8.45361 5.87093C8.4585 5.88077 8.46827 5.89552 8.47316 5.90535C8.50737 5.98402 8.52692 6.06268 8.53669 6.14135C8.54647 6.1561 8.54647 6.17085 8.54647 6.18068ZM12.945 1.83435C12.3634 1.24927 11.5912 0.929688 10.7702 0.929688C9.94911 0.929688 9.17692 1.24927 8.59534 1.83435L6.8848 3.55518C7.48104 3.65843 8.05774 3.88952 8.5709 4.24352L9.77806 3.0291C10.3059 2.4981 11.2247 2.4981 11.7525 3.0291C12.0164 3.2946 12.163 3.6486 12.163 4.02227C12.163 4.39593 12.0164 4.74993 11.7525 5.01543L11.2198 5.55135L8.85925 7.93101C8.33143 8.46201 7.41262 8.46201 6.8848 7.93101C6.55735 7.6016 6.02464 7.6016 5.69719 7.93101C5.36974 8.26043 5.36974 8.79635 5.69719 9.12576C6.27877 9.71084 7.05096 10.0304 7.87202 10.0304C8.69308 10.0304 9.46527 9.71084 10.0469 9.12576L12.4123 6.7461L12.945 6.21018C13.5266 5.6251 13.8443 4.84827 13.8443 4.02227C13.8443 3.19627 13.5266 2.41944 12.945 1.83435Z" fill="#121212"/>
</svg>
