<svg width="16" height="16" viewBox="0 0 16 16" fill="none" xmlns="http://www.w3.org/2000/svg">
<path fill-rule="evenodd" clip-rule="evenodd" d="M8 15.5C12.1333 15.5 15.5 12.1333 15.5 8C15.5 3.86667 12.1333 0.5 8 0.5C3.86667 0.5 0.5 3.86667 0.5 8C0.5 12.1333 3.86667 15.5 8 15.5ZM8 2.16667C11.2167 2.16667 13.8333 4.78333 13.8333 8C13.8333 11.2167 11.2167 13.8333 8 13.8333C4.78333 13.8333 2.16667 11.2167 2.16667 8C2.16667 4.78333 4.78333 2.16667 8 2.16667ZM8 12.1667C8.5753 12.1667 9.04167 11.7003 9.04167 11.125C9.04167 10.5497 8.5753 10.0833 8 10.0833C7.4247 10.0833 6.95833 10.5497 6.95833 11.125C6.95833 11.7003 7.4247 12.1667 8 12.1667ZM7.16667 3.83333H8.83333V9.25H7.16667V3.83333Z" fill="#BF0020"/>
</svg>
