<svg width="11" height="15" viewBox="0 0 11 15" fill="none" xmlns="http://www.w3.org/2000/svg">
<path fill-rule="evenodd" clip-rule="evenodd" d="M7.25497 6.68725C7.25497 7.82792 6.32169 8.7612 5.18102 8.7612C4.04035 8.7612 3.10707 7.82792 3.10707 6.68725V2.53935C3.10707 1.39867 4.04035 0.465393 5.18102 0.465393C6.32169 0.465393 7.25497 1.39867 7.25497 2.53935V6.68725ZM5.18102 1.84803C4.80079 1.84803 4.4897 2.15912 4.4897 2.53935V6.68725C4.4897 7.06747 4.80079 7.37857 5.18102 7.37857C5.56124 7.37857 5.87234 7.06747 5.87234 6.68725V2.53935C5.87234 2.15912 5.56124 1.84803 5.18102 1.84803ZM8.63761 6.68725H10.0202C10.0202 9.12069 8.2159 11.1324 5.87234 11.4712V14.2917H4.4897V11.4712C2.14614 11.1324 0.341797 9.12069 0.341797 6.68725H1.72443C1.72443 8.59529 3.27298 10.1438 5.18102 10.1438C7.08906 10.1438 8.63761 8.59529 8.63761 6.68725Z" fill="white"/>
</svg>
