<svg width="20" height="20" viewBox="0 0 20 20" fill="none" xmlns="http://www.w3.org/2000/svg">
<path d="M16.1866 0.275879H3.2476C2.38629 0.275879 1.56026 0.618049 0.951222 1.22712C0.342185 1.83619 3.05176e-05 2.66227 3.05176e-05 3.52362V16.4633C3.05176e-05 17.3247 0.342185 18.1508 0.951222 18.7598C1.56026 19.3689 2.38629 19.7111 3.2476 19.7111H16.1866C17.048 19.7111 17.8741 19.3689 18.4833 18.7599C19.0926 18.1509 19.4349 17.3248 19.4352 16.4633V3.52362C19.4349 2.66217 19.0926 1.83609 18.4833 1.22705C17.8741 0.618014 17.048 0.275879 16.1866 0.275879ZM15.9024 15.1525C15.9024 15.4243 15.7945 15.685 15.6024 15.8773C15.4103 16.0696 15.1498 16.1778 14.8779 16.1781H4.56051C4.28852 16.1781 4.02767 16.07 3.83534 15.8777C3.64301 15.6854 3.53496 15.4245 3.53496 15.1525V4.83554C3.53496 4.56354 3.64301 4.30267 3.83534 4.11033C4.02767 3.918 4.28852 3.80994 4.56051 3.80994H14.8769C15.1487 3.81023 15.4093 3.9184 15.6014 4.11071C15.7935 4.30302 15.9014 4.56372 15.9014 4.83554L15.9024 15.1525ZM7.65638 12.6312C7.579 12.6311 7.50239 12.6157 7.43096 12.5859C7.35953 12.5561 7.29467 12.5125 7.2401 12.4577C7.18553 12.4028 7.14231 12.3377 7.11292 12.2661C7.08353 12.1945 7.06855 12.1178 7.06883 12.0404V7.92197C7.06841 7.84449 7.08329 7.76769 7.11261 7.69597C7.14194 7.62425 7.18513 7.55902 7.23972 7.50403C7.29431 7.44905 7.35921 7.40538 7.43072 7.37553C7.50222 7.34569 7.5789 7.33025 7.65638 7.33011H11.781C11.8585 7.33025 11.9353 7.34568 12.0068 7.37551C12.0784 7.40534 12.1434 7.449 12.198 7.50397C12.2527 7.55894 12.296 7.62416 12.3255 7.69588C12.3549 7.76761 12.3699 7.84444 12.3696 7.92197V12.0404C12.3698 12.1179 12.3547 12.1946 12.3252 12.2662C12.2956 12.3378 12.2523 12.4029 12.1977 12.4577C12.143 12.5126 12.0781 12.5561 12.0066 12.5859C11.9351 12.6157 11.8584 12.6311 11.781 12.6312H7.65638Z" fill="#121212"/>
</svg>
