<svg width="85" height="21" viewBox="0 0 85 21" fill="none" xmlns="http://www.w3.org/2000/svg">
<path d="M18.2798 0H4.34122C3.41337 0 2.52353 0.368582 1.86745 1.02467C1.21136 1.68075 0.842773 2.5706 0.842773 3.49844V17.437C0.842773 18.3648 1.21136 19.2547 1.86745 19.9108C2.52353 20.5668 3.41337 20.9354 4.34122 20.9354H18.2798C19.2077 20.9354 20.0977 20.5669 20.7539 19.9108C21.4102 19.2548 21.7791 18.3649 21.7794 17.437V3.49844C21.7791 2.57049 21.4102 1.68065 20.7539 1.0246C20.0977 0.368545 19.2077 -5.01721e-08 18.2798 0ZM17.9736 16.025C17.9736 16.3178 17.8574 16.5986 17.6505 16.8057C17.4435 17.0129 17.1628 17.1294 16.87 17.1297H5.75556C5.46255 17.1297 5.18155 17.0133 4.97437 16.8061C4.76718 16.599 4.65078 16.318 4.65078 16.025V4.91163C4.65078 4.61863 4.76718 4.33763 4.97437 4.13044C5.18155 3.92326 5.46255 3.80686 5.75556 3.80686H16.8689C17.1617 3.80717 17.4424 3.9237 17.6493 4.13085C17.8563 4.338 17.9725 4.61883 17.9725 4.91163L17.9736 16.025ZM9.09059 13.309C9.00722 13.3089 8.9247 13.2923 8.84775 13.2602C8.7708 13.2282 8.70093 13.1812 8.64215 13.1221C8.58336 13.063 8.5368 12.9929 8.50514 12.9158C8.47348 12.8386 8.45734 12.756 8.45765 12.6727V8.23631C8.45719 8.15284 8.47322 8.07011 8.50481 7.99286C8.5364 7.9156 8.58293 7.84534 8.64174 7.78611C8.70054 7.72688 8.77046 7.67984 8.84749 7.64769C8.92451 7.61554 9.00712 7.59891 9.09059 7.59876H13.5338C13.6174 7.59891 13.7 7.61553 13.7771 7.64767C13.8542 7.6798 13.9242 7.72682 13.9831 7.78604C14.042 7.84525 14.0886 7.9155 14.1204 7.99277C14.1521 8.07003 14.1682 8.15279 14.1679 8.23631V12.6727C14.1681 12.7561 14.1518 12.8387 14.12 12.9158C14.0882 12.993 14.0416 13.0631 13.9827 13.1222C13.9238 13.1813 13.8539 13.2282 13.7769 13.2603C13.6998 13.2923 13.6173 13.3089 13.5338 13.309H9.09059ZM27.3308 13.0064H29.6163C29.7314 14.301 30.6072 15.308 32.3783 15.308C33.9595 15.308 34.9308 14.5266 34.9308 13.3516C34.9308 12.2469 34.1689 11.7509 32.7972 11.4275L31.0261 11.0466C29.1019 10.6277 27.6542 9.38941 27.6542 7.36975C27.6542 5.14179 29.6359 3.61698 32.2068 3.61698C34.9307 3.61698 36.6834 5.04627 36.8353 7.1603H34.6258C34.36 6.16946 33.5406 5.5791 32.2091 5.5791C30.7994 5.5791 29.8281 6.34093 29.8281 7.31336C29.8281 8.28579 30.6659 8.875 32.1136 9.19838L33.8628 9.57239C35.7869 9.99128 37.1012 11.1536 37.1012 13.1917C37.1012 15.7821 35.1586 17.3254 32.3829 17.3254C29.2515 17.33 27.5253 15.6348 27.3297 13.0064H27.3308ZM45.2834 20.9354V17.1378L45.433 15.4749H45.2834C44.7609 16.6705 43.6585 17.3242 42.1636 17.3242C39.7538 17.3242 37.9608 15.3678 37.9608 12.355C37.9608 9.34223 39.7538 7.38586 42.1636 7.38586C43.64 7.38586 44.6861 8.07634 45.2834 9.1604H45.433V7.57229H47.4135V20.9354H45.2834ZM45.3582 12.3608C45.3582 10.4366 44.1821 9.31576 42.7424 9.31576C41.3027 9.31576 40.1278 10.4366 40.1278 12.3608C40.1278 14.2849 41.3039 15.4058 42.7424 15.4058C44.1809 15.4058 45.3536 14.2907 45.3536 12.3608H45.3582ZM48.9959 13.3505V7.57804H51.1168V13.1641C51.1168 14.6774 51.8453 15.4058 53.0605 15.4058C54.5566 15.4058 55.5255 14.3413 55.5255 12.6784V7.57804H57.6557V17.1435H55.6786V15.163H55.529C55.0629 16.4289 54.0329 17.33 52.4471 17.33C50.1674 17.33 48.9913 15.873 48.9913 13.3505H48.9959ZM58.963 14.4714C58.963 12.6784 60.2139 11.6323 62.4373 11.5011L65.0715 11.3331V10.5862C65.0715 9.68862 64.4178 9.14774 63.2589 9.14774C62.1945 9.14774 61.5592 9.68862 61.3912 10.4551H59.2564C59.4809 8.5125 61.0874 7.39161 63.2543 7.39161C65.7021 7.39161 67.197 8.43769 67.197 10.4551V17.1435H65.2165V15.369H65.0669C64.6192 16.5451 63.6859 17.3254 61.8906 17.3254C60.1725 17.33 58.9584 16.1723 58.9584 14.4714H58.963ZM65.0715 13.2952V12.7946L62.9229 12.9442C61.7652 13.019 61.2416 13.4495 61.2416 14.308C61.2416 15.0364 61.84 15.56 62.6801 15.56C64.1888 15.5566 65.0669 14.5841 65.0669 13.2952H65.0715ZM68.7874 17.1435V7.57804H70.7679V9.40898H70.9106C71.1903 8.1569 72.1432 7.57804 73.5632 7.57804H74.5345V9.50219H73.3273C71.9464 9.50219 70.9175 10.3987 70.9175 12.0996V17.1435H68.7874ZM84.2887 12.7532H77.0168C77.1319 14.5093 78.3621 15.499 79.7258 15.499C80.8835 15.499 81.612 15.0318 82.0274 14.2481H84.1391C83.5637 16.1907 81.8594 17.33 79.7108 17.33C76.8902 17.33 74.9097 15.2194 74.9097 12.3608C74.9097 9.50219 76.9466 7.39161 79.7304 7.39161C82.5326 7.39161 84.3636 9.31576 84.3636 11.7071C84.3603 12.0572 84.3338 12.4067 84.2841 12.7532H84.2887ZM82.2518 11.2767C82.177 9.951 81.0757 9.05453 79.7304 9.05453C78.4645 9.05453 77.3943 9.86009 77.133 11.2767H82.2518Z" fill="#121212"/>
</svg>
