<svg width="20" height="21" viewBox="0 0 20 21" fill="none" xmlns="http://www.w3.org/2000/svg">
<path d="M16.1866 0.740234H3.24757C2.38626 0.740234 1.56023 1.0824 0.951191 1.69147C0.342154 2.30055 0 3.12662 0 3.98798V16.9277C0 17.789 0.342154 18.6151 0.951191 19.2242C1.56023 19.8333 2.38626 20.1754 3.24757 20.1754H16.1866C17.048 20.1754 17.8741 19.8333 18.4833 19.2243C19.0925 18.6152 19.4349 17.7891 19.4352 16.9277V3.98798C19.4349 3.12652 19.0925 2.30045 18.4833 1.69141C17.8741 1.08237 17.048 0.740234 16.1866 0.740234ZM15.9024 15.6168C15.9024 15.8887 15.7945 16.1494 15.6024 16.3417C15.4103 16.534 15.1497 16.6422 14.8779 16.6424H4.56048C4.28849 16.6424 4.02764 16.5344 3.83531 16.342C3.64298 16.1497 3.53493 15.8888 3.53493 15.6168V5.2999C3.53493 5.02789 3.64298 4.76703 3.83531 4.57469C4.02764 4.38235 4.28849 4.2743 4.56048 4.2743H14.8768C15.1487 4.27458 15.4092 4.38276 15.6013 4.57507C15.7934 4.76737 15.9013 5.02808 15.9013 5.2999L15.9024 15.6168ZM7.65635 13.0956C7.57896 13.0954 7.50236 13.08 7.43093 13.0502C7.3595 13.0205 7.29464 12.9769 7.24007 12.922C7.1855 12.8671 7.14228 12.802 7.11289 12.7304C7.0835 12.6589 7.06852 12.5822 7.0688 12.5048V8.38633C7.06838 8.30885 7.08326 8.23204 7.11258 8.16032C7.14191 8.0886 7.1851 8.02338 7.23969 7.96839C7.29428 7.9134 7.35918 7.86973 7.43068 7.83989C7.50219 7.81004 7.57887 7.7946 7.65635 7.79447H11.781C11.8585 7.79461 11.9352 7.81004 12.0068 7.83987C12.0784 7.8697 12.1433 7.91335 12.198 7.96832C12.2527 8.0233 12.296 8.08851 12.3254 8.16024C12.3549 8.23196 12.3699 8.30879 12.3696 8.38633V12.5048C12.3697 12.5822 12.3546 12.6589 12.3251 12.7305C12.2956 12.8021 12.2523 12.8672 12.1976 12.9221C12.143 12.9769 12.0781 13.0205 12.0066 13.0503C11.9351 13.08 11.8584 13.0954 11.781 13.0956H7.65635Z" fill="white"/>
</svg>
